# xmcd
#
# Track frame offsets: 
#        187
#        19325
#        44072
#        64147
#        69795
#        92167
#        115177
#        132260
#        146892
#        163630
#
# Disc length: 2442 seconds
#
# Revision: 0
# Processed by: cddbd v1.5.2PL0 Copyright (c) Steve Scherf et al.
# Submitted via: ExactAudioCopy v1.0b3
#
DISCID=9109880a
DTITLE=Akira Ito - Prayers
DYEAR=1986
DGENRE=New Age
TTITLE0=Praying for Mother and Earth, Part 1
TTITLE1=Praying for Mother and Earth, Part 2
TTITLE2=Praying for Mother and Earth, Part 3
TTITLE3=Praying for Mother and Earth, Part 4
TTITLE4=Praying for Mother and Earth, Part 5
TTITLE5=Praying for Children and Nature, Part 1
TTITLE6=Praying for Children and Nature, Part 2
TTITLE7=Praying for Children and Nature, Part 3
TTITLE8=Praying for Children and Nature, Part 4
TTITLE9=Praying for Children and Nature, Part 5
EXTD=
EXTT0=
EXTT1=
EXTT2=
EXTT3=
EXTT4=
EXTT5=
EXTT6=
EXTT7=
EXTT8=
EXTT9=
PLAYORDER=
